<?xml version="1.0" encoding="iso-8859-1"?>
<!-- Generator: Adobe Illustrator 19.0.0, SVG Export Plug-In . SVG Version: 6.00 Build 0)  -->
<svg version="1.1" id="Layer_1" xmlns="http://www.w3.org/2000/svg" xmlns:xlink="http://www.w3.org/1999/xlink" x="0px" y="0px"
	 viewBox="0 0 512 512" style="enable-background:new 0 0 512 512;" xml:space="preserve">
<g>
	<g>
		<g>
			<path d="M469.333,170.667h-42.667v42.667h42.667V256h-42.667v42.667h42.645l-0.043,128H170.667V384H128v42.667
				c0,23.531,19.136,42.667,42.667,42.667h298.667c23.531,0,42.667-19.136,42.667-42.667V213.333
				C512,189.803,492.864,170.667,469.333,170.667z"/>
			<path d="M384,298.667V85.333c0-23.531-19.136-42.667-42.667-42.667H42.667C19.136,42.667,0,61.803,0,85.333v213.333
				c0,23.531,19.136,42.667,42.667,42.667h298.667C364.864,341.333,384,322.197,384,298.667z M213.333,85.333h128V128h-128V85.333z
				 M128,85.333h42.667V128H128V85.333z M42.667,85.333h42.667V128H42.667V85.333z M341.269,298.667H42.667v-128h298.645
				L341.269,298.667z"/>
		</g>
	</g>
</g>
<g>
</g>
<g>
</g>
<g>
</g>
<g>
</g>
<g>
</g>
<g>
</g>
<g>
</g>
<g>
</g>
<g>
</g>
<g>
</g>
<g>
</g>
<g>
</g>
<g>
</g>
<g>
</g>
<g>
</g>
</svg>
