<?xml version='1.0' encoding='utf-8'?>
<!DOCTYPE svg PUBLIC '-//W3C//DTD SVG 1.1//EN' 'http://www.w3.org/Graphics/SVG/1.1/DTD/svg11.dtd'>
<svg version="1.1" xmlns="http://www.w3.org/2000/svg" viewBox="0 0 512 512" xmlns:xlink="http://www.w3.org/1999/xlink" enable-background="new 0 0 512 512">
  <g>
    <g>
      <path d="M480.6,11H31.4C20.1,11,11,20.1,11,31.4v449.2c0,11.3,9.1,20.4,20.4,20.4h449.2c11.3,0,20.4-9.1,20.4-20.4V31.4    C501,20.1,491.9,11,480.6,11z M460.2,460.2H51.8V51.8h408.3V460.2z"/>
      <path d="m119.1,359.2h9.1v37.8c0,11.3 9.1,20.4 20.4,20.4 11.3,0 20.4-9.1 20.4-20.4v-37.8h9.1c11.3,0 20.4-9.1 20.4-20.4 0-11.3-9.1-20.4-20.4-20.4h-9.1v-203.4c0-11.3-9.1-20.4-20.4-20.4-11.3,0-20.4,9.1-20.4,20.4v203.4h-9.1c-11.3,0-20.4,9.1-20.4,20.4-0.1,11.3 9.1,20.4 20.4,20.4z"/>
      <path d="m226.5,207.9h9.1v189.1c0,11.3 9.1,20.4 20.4,20.4 11.3,0 20.4-9.1 20.4-20.4v-189.1h9.1c11.3,0 20.4-9.1 20.4-20.4s-9.1-20.4-20.4-20.4h-9.1v-52.1c0-11.3-9.1-20.4-20.4-20.4-11.3,0-20.4,9.1-20.4,20.4v52.1h-9.1c-11.3,0-20.4,9.1-20.4,20.4s9.1,20.4 20.4,20.4z"/>
      <path d="m333.9,290.4h9.1v106.6c0,11.3 9.1,20.4 20.4,20.4 11.3,0 20.4-9.1 20.4-20.4v-106.6h9.1c11.3,0 20.4-9.1 20.4-20.4 0-11.3-9.1-20.4-20.4-20.4h-9.1v-134.6c0-11.3-9.1-20.4-20.4-20.4-11.3,0-20.4,9.1-20.4,20.4v134.6h-9.1c-11.3,0-20.4,9.1-20.4,20.4 0,11.2 9.1,20.4 20.4,20.4z"/>
    </g>
  </g>
</svg>
