<?xml version="1.0" encoding="iso-8859-1"?>
<!-- Generator: Adobe Illustrator 19.0.0, SVG Export Plug-In . SVG Version: 6.00 Build 0)  -->
<svg version="1.1" id="Layer_1" xmlns="http://www.w3.org/2000/svg" xmlns:xlink="http://www.w3.org/1999/xlink" x="0px" y="0px"
	 viewBox="0 0 416.102 416.102" style="enable-background:new 0 0 416.102 416.102;" xml:space="preserve">
<g>
	<path d="M387.521,376.102h-28.88l-83.43-304.5l14.08-37.89c4.81-12.94-1.78-27.33-14.72-32.14c-12.87-4.78-27.17,1.71-32.06,14.51
		l-51.12,137.48l-8.08,21.75c-0.01,0.02-2.468,5.657-6.96,9.91c-6.22,6.04-14.38,9.36-23.06,9.36c-8.86,0-17.18-3.45-23.44-9.71
		c-9.72-9.71-9.72-25.52,0-35.24c0.84-0.84,1.75-1.59,2.71-2.24c3-2.03,6.55-3.13,10.25-3.13c4.9,0,9.5,1.91,12.96,5.37
		c5.1,5.1,5.1,13.39,0,18.48c-3.12,3.13-3.12,8.19,0.01,11.32c3.12,3.12,8.18,3.12,11.31,0c0.12-0.12,0.24-0.24,0.36-0.37
		c10.97-11.36,10.85-29.53-0.36-40.74c-6.49-6.48-15.11-10.06-24.28-10.06c-7.35,0-14.34,2.3-20.17,6.55
		c-1.45,1.05-2.82,2.22-4.11,3.51c-15.95,15.95-15.95,41.91,0,57.86c9.29,9.29,21.63,14.4,34.76,14.4c6.33,0,12.48-1.2,18.19-3.48
		l-59.21,159.26l-3.62,9.74h-22.46c-2.1,0-8.11,0.25-9.27,0.25c-28.86,0-52.34-23.49-52.34-52.35c0-3.58,0.47-7.05,1.35-10.36
		c4.58-17.2,20.29-29.92,38.92-29.92c16.89,0,30.63,13.74,30.63,30.62c0,1.84-0.22,3.64-0.64,5.36
		c-2.41,10.05-11.48,17.54-22.26,17.54c-9.22,0-16.72-7.5-16.72-16.72c0-4.42-3.58-8-8-8c-3.59,0-6.63,2.36-7.64,5.62
		c0,0.01-0.01,0.02-0.01,0.04c-0.23,0.74-0.35,1.53-0.35,2.34c0,18.04,14.68,32.72,32.72,32.72c18.25,0,33.6-12.63,37.77-29.6
		c0.74-2.98,1.13-6.09,1.13-9.3c0-25.71-20.92-46.62-46.63-46.62c-26.07,0-48.05,17.82-54.41,41.92c-1.21,4.59-1.86,9.4-1.86,14.36
		c0,34.22,25.28,62.64,58.14,67.58c-0.33,1.46-0.53,2.97-0.53,4.52c0,5.96,2.6,11.3,6.73,14.95c3.53,3.15,8.18,5.05,13.27,5.05
		h93.33c11.05,0,20-8.95,20-20c0-11.04-8.95-20-20-20h-17.53l39.6-106.51h86.39l1.72,6.26l24.8,90.51l2.67,9.74h-22.98
		c-7.79,0-14.55,4.46-17.84,10.97c-1.38,2.71-2.16,5.78-2.16,9.03c0,5.96,2.6,11.3,6.73,14.95c3.53,3.15,8.18,5.05,13.27,5.05h93.33
		c11.05,0,20-8.95,20-20C407.521,385.061,398.571,376.102,387.521,376.102z M216.467,229.589l34.862-93.767l25.692,93.767H216.467z"
		/>
</g>
<g>
</g>
<g>
</g>
<g>
</g>
<g>
</g>
<g>
</g>
<g>
</g>
<g>
</g>
<g>
</g>
<g>
</g>
<g>
</g>
<g>
</g>
<g>
</g>
<g>
</g>
<g>
</g>
<g>
</g>
</svg>
